<svg width="33" height="35" viewBox="0 0 33 35" fill="none" xmlns="http://www.w3.org/2000/svg">
<path d="M12.5 28.5C5 30.75 5 24.75 2 24M23 33V27.195C23.0563 26.4797 22.9596 25.7607 22.7165 25.0857C22.4734 24.4107 22.0894 23.7951 21.59 23.28C26.3 22.755 31.25 20.97 31.25 12.78C31.2496 10.6857 30.444 8.6718 29 7.155C29.6838 5.32276 29.6354 3.29752 28.865 1.5C28.865 1.5 27.095 0.974998 23 3.72C19.562 2.78823 15.938 2.78823 12.5 3.72C8.405 0.974998 6.635 1.5 6.635 1.5C5.86456 3.29752 5.81622 5.32276 6.5 7.155C5.04519 8.68305 4.23878 10.7152 4.25 12.825C4.25 20.955 9.2 22.74 13.91 23.325C13.4165 23.835 13.0359 24.4431 12.793 25.1099C12.55 25.7767 12.4502 26.4871 12.5 27.195V33" stroke="url(#paint0_linear_1835_4)" stroke-width="3.5" stroke-linecap="round" stroke-linejoin="round"/>
<defs>
<linearGradient id="paint0_linear_1835_4" x1="29.5901" y1="23.6544" x2="4.27718" y2="23.5907" gradientUnits="userSpaceOnUse">
<stop offset="0.520264" stop-color="#F4DECB"/>
<stop offset="1" stop-color="#94618E"/>
</linearGradient>
</defs>
</svg>
